<mxfile host="app.diagrams.net" modified="2023-01-28T09:51:43.683Z" agent="5.0 (X11; Linux x86_64) AppleWebKit/537.36 (KHTML, like Gecko) Chrome/108.0.0.0 Safari/537.36" etag="W9_stAYAzWEMtYOSgK-J" version="20.8.13" type="github">
  <diagram name="Page-1" id="JK00M12MMmY-O4u767pp">
    <mxGraphModel dx="1647" dy="880" grid="1" gridSize="10" guides="1" tooltips="1" connect="1" arrows="1" fold="1" page="1" pageScale="1" pageWidth="827" pageHeight="1169" math="0" shadow="0">
      <root>
        <mxCell id="0" />
        <mxCell id="1" parent="0" />
        <mxCell id="NXv9EQyhbuBKsQQ0RaMx-8" style="edgeStyle=orthogonalEdgeStyle;rounded=0;orthogonalLoop=1;jettySize=auto;html=1;exitX=1;exitY=0.5;exitDx=0;exitDy=0;exitPerimeter=0;" edge="1" parent="1" source="NXv9EQyhbuBKsQQ0RaMx-2" target="NXv9EQyhbuBKsQQ0RaMx-3">
          <mxGeometry relative="1" as="geometry" />
        </mxCell>
        <mxCell id="NXv9EQyhbuBKsQQ0RaMx-2" value="loadbalancer" style="verticalLabelPosition=bottom;html=1;verticalAlign=top;align=center;strokeColor=none;fillColor=#00BEF2;shape=mxgraph.azure.load_balancer_generic;pointerEvents=1;" vertex="1" parent="1">
          <mxGeometry x="330" y="351" width="30" height="50" as="geometry" />
        </mxCell>
        <mxCell id="NXv9EQyhbuBKsQQ0RaMx-3" value="aplikacja web" style="aspect=fixed;html=1;points=[];align=center;image;fontSize=12;image=img/lib/azure2/compute/Container_Instances.svg;" vertex="1" parent="1">
          <mxGeometry x="450" y="342" width="64" height="68" as="geometry" />
        </mxCell>
        <mxCell id="NXv9EQyhbuBKsQQ0RaMx-11" value="baza danych" style="aspect=fixed;html=1;points=[];align=center;image;fontSize=12;image=img/lib/azure2/databases/Azure_Database_PostgreSQL_Server.svg;" vertex="1" parent="1">
          <mxGeometry x="676" y="332" width="48" height="64" as="geometry" />
        </mxCell>
        <mxCell id="NXv9EQyhbuBKsQQ0RaMx-12" value="model predykcyjny" style="aspect=fixed;html=1;points=[];align=center;image;fontSize=12;image=img/lib/azure2/other/Worker_Container_App.svg;" vertex="1" parent="1">
          <mxGeometry x="670" y="220" width="68" height="66" as="geometry" />
        </mxCell>
        <mxCell id="NXv9EQyhbuBKsQQ0RaMx-22" style="edgeStyle=orthogonalEdgeStyle;rounded=0;orthogonalLoop=1;jettySize=auto;html=1;" edge="1" parent="1" source="NXv9EQyhbuBKsQQ0RaMx-20" target="NXv9EQyhbuBKsQQ0RaMx-21">
          <mxGeometry relative="1" as="geometry" />
        </mxCell>
        <mxCell id="NXv9EQyhbuBKsQQ0RaMx-20" value="loadbalancer" style="verticalLabelPosition=bottom;html=1;verticalAlign=top;align=center;strokeColor=none;fillColor=#00BEF2;shape=mxgraph.azure.load_balancer_generic;pointerEvents=1;" vertex="1" parent="1">
          <mxGeometry x="330" y="490" width="30" height="50" as="geometry" />
        </mxCell>
        <mxCell id="NXv9EQyhbuBKsQQ0RaMx-24" style="edgeStyle=orthogonalEdgeStyle;rounded=0;orthogonalLoop=1;jettySize=auto;html=1;entryX=0;entryY=0.563;entryDx=0;entryDy=0;entryPerimeter=0;" edge="1" parent="1" source="NXv9EQyhbuBKsQQ0RaMx-21" target="NXv9EQyhbuBKsQQ0RaMx-11">
          <mxGeometry relative="1" as="geometry" />
        </mxCell>
        <mxCell id="NXv9EQyhbuBKsQQ0RaMx-28" style="edgeStyle=orthogonalEdgeStyle;rounded=0;orthogonalLoop=1;jettySize=auto;html=1;entryX=0;entryY=0.544;entryDx=0;entryDy=0;entryPerimeter=0;" edge="1" parent="1" source="NXv9EQyhbuBKsQQ0RaMx-21" target="NXv9EQyhbuBKsQQ0RaMx-25">
          <mxGeometry relative="1" as="geometry" />
        </mxCell>
        <mxCell id="NXv9EQyhbuBKsQQ0RaMx-30" style="edgeStyle=orthogonalEdgeStyle;rounded=0;orthogonalLoop=1;jettySize=auto;html=1;entryX=0;entryY=0.533;entryDx=0;entryDy=0;entryPerimeter=0;" edge="1" parent="1" source="NXv9EQyhbuBKsQQ0RaMx-21" target="NXv9EQyhbuBKsQQ0RaMx-26">
          <mxGeometry relative="1" as="geometry" />
        </mxCell>
        <mxCell id="NXv9EQyhbuBKsQQ0RaMx-31" style="edgeStyle=orthogonalEdgeStyle;rounded=0;orthogonalLoop=1;jettySize=auto;html=1;entryX=0.02;entryY=0.4;entryDx=0;entryDy=0;entryPerimeter=0;" edge="1" parent="1" source="NXv9EQyhbuBKsQQ0RaMx-21" target="NXv9EQyhbuBKsQQ0RaMx-27">
          <mxGeometry relative="1" as="geometry" />
        </mxCell>
        <mxCell id="NXv9EQyhbuBKsQQ0RaMx-42" style="edgeStyle=orthogonalEdgeStyle;rounded=0;orthogonalLoop=1;jettySize=auto;html=1;entryX=-0.002;entryY=0.578;entryDx=0;entryDy=0;entryPerimeter=0;" edge="1" parent="1" source="NXv9EQyhbuBKsQQ0RaMx-21" target="NXv9EQyhbuBKsQQ0RaMx-12">
          <mxGeometry relative="1" as="geometry" />
        </mxCell>
        <mxCell id="NXv9EQyhbuBKsQQ0RaMx-21" value="api RESTowe" style="aspect=fixed;html=1;points=[];align=center;image;fontSize=12;image=img/lib/azure2/compute/Container_Instances.svg;" vertex="1" parent="1">
          <mxGeometry x="450" y="481" width="64" height="68" as="geometry" />
        </mxCell>
        <mxCell id="NXv9EQyhbuBKsQQ0RaMx-25" value="sterownik przepływu&amp;nbsp;wody" style="sketch=0;aspect=fixed;html=1;points=[];align=center;image;fontSize=12;image=img/lib/mscae/Input.svg;" vertex="1" parent="1">
          <mxGeometry x="676" y="435.5" width="50" height="45" as="geometry" />
        </mxCell>
        <mxCell id="NXv9EQyhbuBKsQQ0RaMx-26" value="sterownik przepływu rudy" style="sketch=0;aspect=fixed;html=1;points=[];align=center;image;fontSize=12;image=img/lib/mscae/Input.svg;" vertex="1" parent="1">
          <mxGeometry x="676" y="521" width="50" height="45" as="geometry" />
        </mxCell>
        <mxCell id="NXv9EQyhbuBKsQQ0RaMx-27" value="sterownik obrotów młyna" style="sketch=0;aspect=fixed;html=1;points=[];align=center;image;fontSize=12;image=img/lib/mscae/Input.svg;" vertex="1" parent="1">
          <mxGeometry x="676" y="604" width="50" height="45" as="geometry" />
        </mxCell>
        <mxCell id="NXv9EQyhbuBKsQQ0RaMx-32" value="" style="endArrow=none;dashed=1;html=1;dashPattern=1 3;strokeWidth=2;rounded=0;" edge="1" parent="1">
          <mxGeometry width="50" height="50" relative="1" as="geometry">
            <mxPoint x="260" y="700" as="sourcePoint" />
            <mxPoint x="260" y="190" as="targetPoint" />
          </mxGeometry>
        </mxCell>
        <mxCell id="NXv9EQyhbuBKsQQ0RaMx-35" style="edgeStyle=orthogonalEdgeStyle;rounded=0;orthogonalLoop=1;jettySize=auto;html=1;entryX=0;entryY=0.5;entryDx=0;entryDy=0;entryPerimeter=0;" edge="1" parent="1" source="NXv9EQyhbuBKsQQ0RaMx-34" target="NXv9EQyhbuBKsQQ0RaMx-2">
          <mxGeometry relative="1" as="geometry">
            <mxPoint x="270" y="350" as="targetPoint" />
          </mxGeometry>
        </mxCell>
        <mxCell id="NXv9EQyhbuBKsQQ0RaMx-36" style="edgeStyle=orthogonalEdgeStyle;rounded=0;orthogonalLoop=1;jettySize=auto;html=1;entryX=0;entryY=0.71;entryDx=0;entryDy=0;entryPerimeter=0;" edge="1" parent="1" source="NXv9EQyhbuBKsQQ0RaMx-34" target="NXv9EQyhbuBKsQQ0RaMx-20">
          <mxGeometry relative="1" as="geometry" />
        </mxCell>
        <mxCell id="NXv9EQyhbuBKsQQ0RaMx-34" value="Użytkownik" style="shape=umlActor;verticalLabelPosition=bottom;verticalAlign=top;html=1;outlineConnect=0;" vertex="1" parent="1">
          <mxGeometry x="200" y="380" width="30" height="60" as="geometry" />
        </mxCell>
        <mxCell id="NXv9EQyhbuBKsQQ0RaMx-39" value="sieć wewnętrzna&amp;nbsp;" style="text;html=1;strokeColor=none;fillColor=none;align=center;verticalAlign=middle;whiteSpace=wrap;rounded=0;" vertex="1" parent="1">
          <mxGeometry x="280" y="190" width="100" height="30" as="geometry" />
        </mxCell>
      </root>
    </mxGraphModel>
  </diagram>
</mxfile>
